<svg width="800" height="620" xmlns="http://www.w3.org/2000/svg" version="1.1">
 <g>
  <title>Layer 1</title>
  <path d="m0,0l0,620.8l800,0l0,-620.8l-800,0zm79.906,82.129l640.17,0l0,456.54l-640.17,0l0,-456.54zm156.89,57.068a60.8,60.8 0 0 0 -60.801,60.801a60.8,60.8 0 0 0 60.801,60.799a60.8,60.8 0 0 0 60.801,-60.799a60.8,60.8 0 0 0 -60.801,-60.801zm242.67,67.732l-97.066,137.6l-52.266,-50.666l-152,158.93l467.2,0l-165.87,-245.87l0.002,0.006z" color="#000000" color-rendering="auto" fill="#404040" image-rendering="auto" shape-rendering="auto" solid-color="#000000" id="svg_1"/>
 </g>

</svg>